<svg class=" " xmlns="http://www.w3.org/2000/svg" viewBox="0 0 1600 800"><path d="M397.73,727.273C407.062,735.507,421.764,739.465,442.211,741.342C484.814,745.253,591.228,720.449,643.216,716.437C675.979,713.908,694.191,712.28,723.618,713.961C759.84,716.031,799.757,721.472,844.221,731.564C901.474,744.559,999.767,789.942,1037.186,791.562C1052.289,792.215,1063.128,789.9,1069.347,784.541C1073.95,780.574,1075.942,774.16,1075.755,767.677C1075.494,758.594,1069.1,745.241,1061.296,735.354C1051.744,723.251,1035.357,712.121,1019.228,703.03C1001.128,692.829,979.976,685.267,956.97,678.788C930.055,671.208,907.483,666.699,866.974,662.626C784.759,654.36,567.434,646.457,490.452,654.069C455.805,657.495,433.185,663.073,415.999,670.707C405.594,675.329,398.261,680.9,393.176,686.869C389.278,691.444,386.001,696.006,385.93,701.618C385.836,708.975,390.47,720.867,397.73,727.273" stroke="#71717a" stroke-width="3" fill="none" stroke-linecap="round" stroke-miterlimit="4"></path><path d="M943.567,796C943.567,796,878.804,769.416,844.221,760.785C808.285,751.815,767.01,746.194,731.658,743.939C700.492,741.952,677.314,742.908,643.216,745.811C595.846,749.844,517.423,767.752,474.372,771.109C447.947,773.17,430.472,775.094,410.05,771.555C390.341,768.139,367.001,760.263,353.769,751.003C344.248,744.341,337.778,735.797,333.792,727.273C330.242,719.679,328.763,711.011,329.504,703.03C330.265,694.844,333.501,686.293,338.638,678.788C344.723,669.9,353.13,661.556,365.697,654.545C385.273,643.625,417.176,634.822,450.251,629.577C494.929,622.492,551.618,624.536,611.055,625.168C685.084,625.955,792.383,628.983,860.302,637.309C907.973,643.153,945.255,650.27,980.905,661.164C1010.928,670.339,1037.681,680.507,1061.292,694.949C1083.227,708.366,1104.973,725.24,1118.852,743.434C1131.025,759.393,1143.121,796,1143.121,796" stroke="#71717a" stroke-width="3" fill="none" stroke-linecap="round" stroke-miterlimit="4"></path><path d="M409.556,796C409.556,796,370.479,791.358,353.464,783.838C336.697,776.429,318.335,764.674,308.064,751.515C299,739.904,292.983,724.704,292.23,711.111C291.491,697.764,296.031,682.573,303.101,670.707C310.592,658.135,324.497,646.748,337.18,638.384C349.501,630.258,362.479,625.535,377.889,620.833C396.613,615.119,418.497,611.478,442.211,608.775C471.017,605.491,498.34,604.892,538.693,604.749C606.609,604.509,731.088,605.62,812.06,614.215C877.689,621.182,943.409,633.113,988.945,645.836C1018.86,654.194,1038.769,662.533,1061.307,673.736C1082.866,684.453,1104.396,697.247,1121.64,711.111C1137.005,723.463,1150.166,736.933,1160.906,751.515C1171.089,765.341,1185.121,796,1185.121,796" stroke="#71717a" stroke-width="3" fill="none" stroke-linecap="round" stroke-miterlimit="4"></path><path d="M450.251,795.793C450.251,795.793,635.71,765.228,699.497,763.856C739.093,763.003,764.865,766.479,795.98,772.019C826.074,777.376,883.327,796,883.327,796" stroke="#71717a" stroke-width="3" fill="none" stroke-linecap="round" stroke-miterlimit="4"></path><path d="M323.549,796C323.549,796,295.696,779.25,285.764,767.677C275.982,756.277,267.51,741.425,264.166,727.273C260.921,713.536,261.371,697.802,265.327,684.127C269.463,669.825,278.877,654.92,289.447,643.542C300.22,631.945,315.065,622.795,329.648,615.453C344.501,607.976,357.17,603.523,377.889,599.311C412.891,592.196,466.056,589.14,522.613,587.974C602.502,586.328,727.688,589.446,812.06,598.678C878.54,605.952,941.329,617.844,988.945,631.049C1022.562,640.371,1046.823,650.144,1072.831,662.626C1097.287,674.364,1121.469,688.448,1141.016,703.03C1157.947,715.662,1171.854,728.179,1184.65,743.434C1197.771,759.077,1218.498,796,1218.498,796" stroke="#71717a" stroke-width="3" fill="none" stroke-linecap="round" stroke-miterlimit="4"></path><path d="M565.977,796C565.977,796,656.211,781.477,699.497,781.738C740.529,781.986,819.302,796,819.302,796" stroke="#71717a" stroke-width="3" fill="none" stroke-linecap="round" stroke-miterlimit="4"></path><path d="M281.206,796C281.206,796,256.705,772.896,249.091,759.596C241.965,747.148,237.183,733.435,235.834,719.192C234.388,703.921,236.587,685.557,242.084,670.707C247.55,655.942,257.822,641.598,268.605,630.303C279.079,619.331,291.844,610.841,305.528,603.539C320.057,595.786,332.771,590.427,353.769,585.755C390.028,577.688,446.825,574.158,506.533,572.793C590.852,570.865,724.359,574.817,812.06,584.694C879.345,592.272,939.36,603.981,988.945,617.864C1026.478,628.373,1056.235,640.477,1085.427,654.248C1111.424,666.512,1134.869,679.599,1156.354,694.949C1176.73,709.507,1196.06,725.903,1211.661,743.434C1226.195,759.767,1247.883,796,1247.883,796" stroke="#71717a" stroke-width="3" fill="none" stroke-linecap="round" stroke-miterlimit="4"></path><path d="M247.384,796C247.384,796,224.804,767.334,218.704,751.515C212.826,736.273,210.047,719.124,210.706,703.03C211.37,686.8,216.121,668.995,222.845,654.545C229.231,640.824,238.623,628.677,249.246,618.014C260.18,607.038,273.575,597.558,287.842,589.899C302.897,581.817,316.335,576.191,337.688,571.374C372.984,563.411,424.612,560.056,482.412,558.613C568.44,556.466,711.882,560.512,804.02,570.853C874.469,578.76,937.744,591.329,988.945,605.554C1026.819,616.076,1054.899,627.583,1085.427,641.484C1114.752,654.837,1143.984,670.278,1168.882,686.869C1191.348,701.839,1211.392,717.073,1229.147,735.354C1246.756,753.484,1275.088,796,1275.088,796" stroke="#71717a" stroke-width="3" fill="none" stroke-linecap="round" stroke-miterlimit="4"></path><path d="M217.085,795.54C217.085,795.54,197.82,764.31,192.965,747.455C188.157,730.764,186.397,711.965,187.91,694.949C189.389,678.324,194.288,661.295,201.508,646.465C208.708,631.672,219.3,617.768,231.13,606.061C243.179,594.136,258.138,583.834,273.367,575.768C288.711,567.641,301.7,562.302,322.899,557.576C357.917,549.769,408.662,546.513,466.332,545.105C553.626,542.974,702.182,547.303,795.98,557.607C866.788,565.387,928.316,577.093,980.905,591.438C1021.644,602.551,1053.185,615.387,1086.824,630.303C1119.181,644.65,1150.895,660.664,1179.267,678.788C1206.047,695.895,1232.163,714.768,1253.08,735.354C1272.159,754.13,1301.114,796,1301.114,796" stroke="#71717a" stroke-width="3" fill="none" stroke-linecap="round" stroke-miterlimit="4"></path><path d="M189.761,796C189.761,796,172.642,760.919,168.64,743.434C164.934,727.24,163.925,711.001,165.339,694.949C166.772,678.675,170.416,662.025,177.391,646.465C184.953,629.596,197.854,611.434,210.505,597.98C222.071,585.681,235.032,576.223,249.246,567.872C263.937,559.241,279.937,552.661,297.487,547.377C317.094,541.474,339.078,538.042,361.809,535.462C387.022,532.6,405.911,532.101,442.211,532.012C518.346,531.825,698.601,534.8,795.98,545.447C865.374,553.034,920.092,563.182,972.864,577.607C1017.491,589.805,1054.937,604.99,1093.467,622.148C1130.955,638.841,1169.204,658.548,1201.184,678.788C1229.315,696.591,1254.924,714.799,1276.464,735.354C1296.157,754.144,1326.633,795.986,1326.633,795.986" stroke="#71717a" stroke-width="3" fill="none" stroke-linecap="round" stroke-miterlimit="4"></path><path d="M163.262,796C163.262,796,149.196,761.514,145.975,743.434C142.718,725.149,141.827,704.835,144.005,686.869C146.06,669.916,150.423,653.967,157.741,638.384C165.649,621.547,178.3,603.657,191.057,589.899C203,577.018,216.448,566.573,231.229,557.576C246.476,548.296,263.302,541.115,281.407,535.41C301.2,529.172,322.984,525.452,345.729,522.733C370.929,519.721,389.571,519.338,426.131,519.246C504.533,519.048,695.507,522.224,795.98,533.417C866.029,541.221,920.106,551.585,972.864,566.261C1017.507,578.68,1054.175,594.162,1093.467,611.524C1132.921,628.958,1173.611,649.137,1209.08,670.707C1241.916,690.677,1274.674,712.582,1299.699,735.354C1320.947,754.687,1352.238,796,1352.238,796" stroke="#71717a" stroke-width="3" fill="none" stroke-linecap="round" stroke-miterlimit="4"></path><path d="M137.333,796C137.333,796,124.638,755.363,122.349,735.354C120.17,716.312,120.224,696.709,123.162,678.788C125.949,661.785,130.999,645.905,138.727,630.303C147.052,613.492,159.898,595.65,172.547,581.818C184.211,569.063,196.431,558.829,211.051,549.495C227.014,539.303,246.069,530.488,265.327,524.069C285.489,517.348,306.892,513.584,329.648,510.669C354.837,507.443,373.362,506.92,410.05,506.693C489.567,506.201,703.476,513.802,787.94,520.696C830.773,524.192,853.877,527.277,884.422,532.903C912.597,538.092,935.204,543.272,964.824,552.444C1003.017,564.27,1050.492,582.143,1093.467,601.177C1138.789,621.251,1189.312,646.547,1229.747,670.707C1264.589,691.526,1297.127,712.597,1323.154,735.354C1345.276,754.696,1378.447,796,1378.447,796" stroke="#71717a" stroke-width="3" fill="none" stroke-linecap="round" stroke-miterlimit="4"></path><path d="M111.486,796C111.486,796,100.465,749.14,99.195,727.273C98.05,707.572,98.935,688.582,102.644,670.707C106.182,653.653,112.041,637.846,120.245,622.222C129.057,605.439,141.336,588.144,154.77,573.737C168.245,559.287,184.06,546.149,201.005,535.685C218.189,525.073,237.534,516.961,257.286,510.697C277.671,504.232,298.862,500.662,321.608,497.903C346.806,494.846,365.203,494.429,402.01,494.276C482.637,493.941,685.81,497.597,787.94,508.475C855.994,515.724,904.13,523.759,956.784,538.407C1005.443,551.945,1046.897,570.253,1093.467,590.988C1144.496,613.709,1204.848,644.195,1250.187,670.707C1287.107,692.296,1319.921,712.611,1347.219,735.354C1370.446,754.705,1405.939,796,1405.939,796" stroke="#71717a" stroke-width="3" fill="none" stroke-linecap="round" stroke-miterlimit="4"></path><path d="M85.178,796C85.178,796,76.962,749.096,76.354,727.273C75.804,707.529,76.292,689.259,80.435,670.707C84.717,651.528,92.642,631.686,102.2,614.141C111.71,596.682,123.904,580.248,137.57,565.657C151.426,550.862,167.872,536.946,184.925,526.115C201.662,515.483,219.497,507.537,238.801,501.01C259.497,494.012,282.114,489.555,305.528,486.364C330.947,482.899,348.88,482.324,385.93,481.949C468.737,481.109,684.396,485.06,787.94,495.858C853.903,502.737,897.984,509.829,948.744,523.997C996.858,537.426,1037.844,556.085,1085.427,577.192C1139.72,601.276,1205.351,634.074,1256.203,662.626C1299.284,686.815,1340.493,710.54,1372.37,735.354C1397.87,755.203,1435.728,796,1435.728,796" stroke="#71717a" stroke-width="3" fill="none" stroke-linecap="round" stroke-miterlimit="4"></path><path d="M57.872,796C57.872,796,51.901,742.81,52.579,719.192C53.163,698.867,54.656,681.122,59.756,662.626C65.063,643.382,74.232,623.639,84.471,606.061C94.615,588.646,106.928,572.297,120.794,557.576C134.878,542.622,151.12,528.409,168.488,517.172C185.891,505.91,205.247,497.075,225.126,490.107C245.515,482.961,266.667,478.555,289.447,475.149C314.613,471.387,332.564,470.342,369.849,469.648C454.794,468.068,683.209,472.055,787.94,482.661C851.696,489.118,892.614,495.57,940.704,509.001C986.109,521.682,1021.896,538.41,1069.347,559.483C1130.753,586.754,1216.962,630.208,1276.524,662.626C1323.287,688.078,1364.901,710.661,1399.251,735.354C1426.966,755.276,1469.585,796,1469.585,796" stroke="#71717a" stroke-width="3" fill="none" stroke-linecap="round" stroke-miterlimit="4"></path><path d="M28.813,796C28.813,796,25.88,736.444,28.19,711.111C30.092,690.245,32.827,672.991,39.018,654.545C45.498,635.241,55.311,616.268,66.942,597.98C79.459,578.297,96.134,557.196,112.563,540.902C127.617,525.971,143.245,513.609,160.804,502.992C178.748,492.142,198.507,483.535,219.269,476.768C241.236,469.608,264.567,465.155,289.447,461.917C317.091,458.321,337.614,457.936,377.889,457.471C464.572,456.469,686.32,458.669,787.94,468.598C848.728,474.537,888.042,480.692,932.663,493.092C973.167,504.347,1000.758,517.579,1045.226,537.327C1113.061,567.451,1225.148,624.645,1297.234,662.626C1352.596,691.795,1403.407,718.14,1442.232,743.434C1470.315,761.731,1511.558,795.747,1511.558,795.747" stroke="#71717a" stroke-width="3" fill="none" stroke-linecap="round" stroke-miterlimit="4"></path><path d="M4.031,694.949C4.031,694.949,17.568,645.665,29.623,622.222C42.563,597.059,61.905,570.583,80.624,549.495C97.854,530.084,115.686,513.242,136.683,499.281C158.345,484.879,180.349,473.576,209.045,464.94C246.72,453.601,286.789,449.104,345.729,445.46C452.175,438.878,698.55,445.509,795.98,453.596C843.176,457.514,866.741,460.797,900.503,469.133C933.707,477.331,952.068,483.913,996.985,502.886C1110.77,550.949,1583.92,795.738,1583.92,795.738" stroke="#71717a" stroke-width="3" fill="none" stroke-linecap="round" stroke-miterlimit="4"></path><path d="M4,624.654C4,624.654,33.459,578.181,50.487,557.576C67.049,537.534,85.342,517.775,104.523,502.428C122.281,488.219,140.846,476.993,160.804,467.607C181.016,458.102,199.991,451.439,225.126,445.924C258.725,438.551,292.177,435.594,345.729,432.986C451.636,427.828,731.443,429.79,820.101,437.509C854.962,440.544,868.581,443.523,892.462,449.496C916.833,455.591,931.055,459.958,964.824,473.959C1051.436,509.869,1316.949,652.757,1415.075,697.065C1461.593,718.07,1487.124,729.177,1519.598,739.812C1546.716,748.693,1596,758.895,1596,758.895" stroke="#71717a" stroke-width="3" fill="none" stroke-linecap="round" stroke-miterlimit="4"></path><path d="M1573.611,4C1573.611,4,1578.019,63.442,1577.621,96.97C1577.151,136.534,1566.317,200.351,1568.967,226.263C1570.134,237.68,1571.516,243.164,1575.692,250.505C1580.204,258.436,1596,271.708,1596,271.708" stroke="#71717a" stroke-width="3" fill="none" stroke-linecap="round" stroke-miterlimit="4"></path><path d="M4,587.009C4,587.009,38.439,541.985,56.281,523.624C72.038,507.41,87.102,493.587,104.523,481.457C121.943,469.327,140.963,459.096,160.804,450.846C181.113,442.4,200.84,436.501,225.126,431.649C255.513,425.577,281.763,423.418,329.648,420.697C433.939,414.771,736.7,407.505,828.141,416.147C863.323,419.472,877.38,423.838,900.503,430.634C922.878,437.211,936.929,442.936,964.824,455.891C1021.165,482.056,1134.681,550.522,1212.838,589.899C1281.004,624.242,1350.601,657.543,1407.035,680.851C1449.185,698.26,1485.356,712.082,1519.598,721.348C1547.195,728.816,1596,735.504,1596,735.504" stroke="#71717a" stroke-width="3" fill="none" stroke-linecap="round" stroke-miterlimit="4"></path><path d="M1596,298.606C1596,298.606,1565.095,284.982,1555.321,274.747C1546.72,265.74,1541.256,257.683,1538.313,242.424C1532.424,211.893,1553.009,140.068,1553.391,96.97C1553.696,62.543,1545.416,4,1545.416,4" stroke="#71717a" stroke-width="3" fill="none" stroke-linecap="round" stroke-miterlimit="4"></path><path d="M1596,716.841C1596,716.841,1531.1,708.777,1495.477,699.207C1452.933,687.777,1407.428,669.795,1358.794,649.118C1300.483,624.327,1235.72,592.66,1170.611,557.576C1097.017,517.92,992.063,446.861,940.704,421.093C916.18,408.789,903.469,403.53,884.422,397.673C865.931,391.987,853.589,387.666,828.141,386.127C775.911,382.968,669.322,402.149,586.935,405.835C500.669,409.695,389.747,404.123,321.608,407.934C278.726,410.333,247.161,413.04,217.085,418.829C193.57,423.355,174.554,428.961,155.278,436.364C137.192,443.309,120.744,451.223,104.523,461.316C87.692,471.787,71.781,484.277,56.281,498.464C39.522,513.804,8.04,550.811,8.04,550.811" stroke="#71717a" stroke-width="3" fill="none" stroke-linecap="round" stroke-miterlimit="4"></path><path d="M509.491,4C509.491,4,616.739,49.848,643.216,48.951C654.604,48.565,661.305,45.231,667.337,38.98C674.549,31.506,680.355,4,680.355,4" stroke="#71717a" stroke-width="3" fill="none" stroke-linecap="round" stroke-miterlimit="4"></path><path d="M1596,317.975C1596,317.975,1550.41,303.56,1535.497,290.909C1522.748,280.094,1512.957,269.213,1508.77,250.505C1501.477,217.919,1529.267,149.168,1529.869,105.051C1530.37,68.344,1518.017,4,1518.017,4" stroke="#71717a" stroke-width="3" fill="none" stroke-linecap="round" stroke-miterlimit="4"></path><path d="M4,526.261C4,526.261,56.911,470.558,88.442,450.988C119.912,431.456,157.52,418.138,192.965,408.891C227.241,399.948,253.632,398.972,297.487,395.487C371.19,389.63,526.396,393.223,594.975,386.244C631.623,382.515,649.203,378.873,678.717,371.717C712.969,363.413,760.203,342.498,787.94,337.456C804.39,334.466,812.745,332.784,828.141,335.216C850.669,338.775,876.616,349.189,908.543,366.309C964.13,396.117,1054.278,475.132,1121.919,517.172C1179.064,552.688,1229.346,579.611,1285.892,606.061C1343.101,632.821,1407.71,660.715,1463.317,676.575C1510.04,689.902,1596,700.363,1596,700.363" stroke="#71717a" stroke-width="3" fill="none" stroke-linecap="round" stroke-miterlimit="4"></path><path d="M435.602,4C435.602,4,497.049,33.649,530.653,52.959C570.794,76.024,624.292,118.323,659.296,134.955C681.118,145.323,699.879,153.231,715.578,153.584C726.739,153.835,737.154,151.011,744.42,145.455C751.477,140.058,756.379,130.256,758.946,121.212C761.692,111.539,760.754,102.115,759.379,88.889C757.123,67.191,740.346,4,740.346,4" stroke="#71717a" stroke-width="3" fill="none" stroke-linecap="round" stroke-miterlimit="4"></path><path d="M1596,334.372C1596,334.372,1537.914,316.835,1519.598,306.026C1507.501,298.887,1499.351,291.366,1492.666,282.828C1486.82,275.363,1482.526,267.527,1480.385,258.586C1478.051,248.835,1478.807,240.361,1480.351,226.263C1483.379,198.629,1504.735,137.999,1507.37,105.051C1509.149,82.793,1506.976,66.057,1503.988,48.485C1501.288,32.61,1491.332,4,1491.332,4" stroke="#71717a" stroke-width="3" fill="none" stroke-linecap="round" stroke-miterlimit="4"></path><path d="M1596,685.134C1596,685.134,1519.331,678.26,1479.397,668.628C1435.145,657.955,1389.441,641.021,1342.714,621.395C1290.693,599.546,1229.056,569.263,1182.314,541.414C1143.034,518.011,1119.086,502.17,1078.721,468.687C1011.864,413.229,858.809,271.711,830.135,226.263C821.145,212.012,821.954,207.351,819.146,193.939C814.819,173.268,817.517,141.816,812.256,113.131C806.033,79.201,781.145,4,781.145,4" stroke="#71717a" stroke-width="3" fill="none" stroke-linecap="round" stroke-miterlimit="4"></path><path d="M383.601,4C383.601,4,482.045,58.111,530.653,91.066C582.564,126.259,657.824,184.486,684.984,210.101C696.01,220.499,700.94,225.781,706.055,234.343C710.65,242.035,714.044,250.372,715.22,258.586C716.36,266.542,715.565,274.962,713.353,282.828C711.013,291.15,707.832,298.911,700.994,307.071C690.643,319.421,670.88,334.897,651.256,344.662C628.536,355.967,606.726,361.517,570.854,367.456C502.22,378.819,338.465,375.687,265.327,383.324C224.002,387.64,199.822,389.88,168.844,398.52C138.207,407.064,107.337,418.686,80.402,434.643C53.798,450.404,8.04,493.386,8.04,493.386" stroke="#71717a" stroke-width="3" fill="none" stroke-linecap="round" stroke-miterlimit="4"></path><path d="M1596,349.17C1596,349.17,1519.94,327.68,1497.142,315.152C1483.241,307.513,1474.486,299.744,1466.765,290.909C1460.182,283.377,1454.978,275.707,1452.261,266.667C1449.353,256.991,1448.97,247.334,1450.812,234.343C1453.802,213.25,1472.438,177.278,1478.167,153.535C1482.509,135.539,1484.802,121.868,1485.352,105.051C1485.945,86.954,1484.438,65.989,1480.723,48.485C1477.338,32.534,1465.158,4,1465.158,4" stroke="#71717a" stroke-width="3" fill="none" stroke-linecap="round" stroke-miterlimit="4"></path><path d="M339.189,4C339.189,4,459.686,74.934,506.533,108.654C543.281,135.106,576.82,160.552,600.285,185.859C617.995,204.958,633.71,225.431,640.11,242.424C644.497,254.074,644.945,264.902,643.58,274.747C642.355,283.575,639.711,291.089,633.825,298.99C625.531,310.122,609.617,322.769,593.25,331.313C573.742,341.497,554.262,346.735,522.613,352.359C461.603,363.2,317.027,361.8,249.246,369.375C208.756,373.9,183.032,376.639,152.764,384.988C124.288,392.843,96.848,403.218,72.362,416.904C48.773,430.088,8.04,464.941,8.04,464.941" stroke="#71717a" stroke-width="3" fill="none" stroke-linecap="round" stroke-miterlimit="4"></path><path d="M1596,670.618C1596,670.618,1524.204,665.979,1487.437,658.23C1447.906,649.898,1407.667,636.464,1366.834,620.68C1322.416,603.511,1273.229,581.115,1231.336,557.576C1192.099,535.53,1151.456,509.121,1122.239,484.848C1099.565,466.011,1086.054,451.343,1067.132,428.283C1042.185,397.881,1019.1,350.895,989.407,315.152C958.51,277.959,904.364,238.2,884.422,209.964C873.495,194.492,872.298,188.043,865.199,169.697C851.219,133.564,815.216,4,815.216,4" stroke="#71717a" stroke-width="3" fill="none" stroke-linecap="round" stroke-miterlimit="4"></path><path d="M1596,363.065C1596,363.065,1513.684,342.192,1487.437,330.345C1471.058,322.953,1460.691,316.507,1449.914,307.071C1439.426,297.886,1427.986,286.997,1423.37,274.747C1418.832,262.705,1419.24,249.773,1422.027,234.343C1426.123,211.666,1448.432,177.447,1455.276,153.596C1460.416,135.686,1462.823,121.271,1463.524,105.051C1464.221,88.928,1463.261,72.784,1459.543,56.566C1455.542,39.11,1439.229,4,1439.229,4" stroke="#71717a" stroke-width="3" fill="none" stroke-linecap="round" stroke-miterlimit="4"></path><path d="M4,438.917C4,438.917,42.536,408.412,64.322,396.927C86.675,385.142,110.988,376.427,136.683,369.506C164.34,362.057,188.046,359.213,225.126,354.872C287.028,347.624,418.759,347.635,474.372,337.615C503.187,332.424,520.465,327.838,538.693,318.603C554.513,310.589,570.686,298.369,578.894,288.016C584.48,280.972,587.088,274.715,588.439,266.667C590.031,257.186,589.757,246.021,585.598,234.343C579.559,217.391,563.618,195.716,547.171,177.778C527.899,156.76,504.648,140.561,474.372,118.5C429.068,85.488,298.088,4,298.088,4" stroke="#71717a" stroke-width="3" fill="none" stroke-linecap="round" stroke-miterlimit="4"></path><path d="M1596,656.463C1596,656.463,1530.188,654.047,1495.477,647.596C1456.772,640.402,1414.679,627.623,1374.874,612.977C1333.71,597.832,1290.366,578.413,1252.652,557.576C1217.398,538.098,1181.799,516.412,1154.824,492.929C1131.702,472.801,1114.959,454.249,1097.877,428.283C1077.289,396.988,1069.445,348.921,1044.393,315.152C1017.906,279.447,963.919,245.791,940.704,221.254C927.457,207.254,921.965,203.411,912.048,185.859C891.61,149.682,846.082,4,846.082,4" stroke="#71717a" stroke-width="3" fill="none" stroke-linecap="round" stroke-miterlimit="4"></path><path d="M1596,376.51C1596,376.51,1497.887,352.361,1466.928,339.394C1448.159,331.532,1436.588,324.846,1423.924,315.152C1411.786,305.86,1397.843,295.387,1392.116,282.828C1386.701,270.955,1385.974,257.731,1388.942,242.424C1393.371,219.583,1420.357,185.567,1429.125,161.616C1435.646,143.803,1439.638,130.031,1441.011,113.131C1442.475,95.115,1441.181,74.695,1436.576,56.566C1431.938,38.307,1413.146,4,1413.146,4" stroke="#71717a" stroke-width="3" fill="none" stroke-linecap="round" stroke-miterlimit="4"></path><path d="M4,405.83C4,405.83,38.028,381.811,56.281,372.911C74.242,364.154,91.409,358.148,112.563,352.66C138.457,345.942,164.639,342.405,201.005,338.179C258.711,331.473,374.19,331.83,426.131,322.602C454.428,317.575,472.449,312.985,490.452,303.927C505.729,296.24,520.991,285.214,528.857,274.747C534.63,267.066,537.181,258.715,538.2,250.505C539.187,242.545,538.572,235.286,535.254,226.263C530.136,212.344,517.529,193.477,503.225,177.778C485.392,158.204,462.096,142.737,432.81,121.212C388.114,88.36,258.093,4,258.093,4" stroke="#71717a" stroke-width="3" fill="none" stroke-linecap="round" stroke-miterlimit="4"></path><path d="M1596,642.326C1596,642.326,1529.648,640.975,1495.477,635.208C1458.723,629.005,1420.701,618.338,1382.915,604.819C1342.312,590.292,1296.229,569.79,1260.186,549.495C1229.142,532.015,1200.596,514.389,1177.884,492.929C1157.335,473.513,1139.474,453.555,1127.836,428.283C1115.026,400.469,1115.35,352.522,1107.737,331.313C1103.733,320.157,1103.024,316.727,1094.965,307.071C1075.789,284.095,1000.459,237.963,972.864,211.386C956.491,195.617,948.874,187.784,937.585,169.697C921.223,143.482,902.158,95.249,891.467,64.646C883.561,42.017,875.43,4,875.43,4" stroke="#71717a" stroke-width="3" fill="none" stroke-linecap="round" stroke-miterlimit="4"></path><path d="M1596,389.886C1596,389.886,1544.813,381.051,1519.598,374.069C1493.965,366.972,1467.152,357.761,1443.483,347.475C1421.508,337.925,1398.284,327.378,1381.962,315.152C1368.832,305.317,1355.433,294.649,1350.696,282.828C1346.681,272.806,1347.274,263.336,1350.908,250.505C1357.426,227.492,1393.597,187.464,1404.855,161.616C1412.692,143.622,1417.069,130.066,1418.591,113.131C1420.207,95.148,1418.323,74.609,1413.099,56.566C1407.782,38.203,1386.602,4,1386.602,4" stroke="#71717a" stroke-width="3" fill="none" stroke-linecap="round" stroke-miterlimit="4"></path><path d="M217.622,4C217.622,4,269.01,34.533,300.346,56.566C344.865,87.866,427.13,146.249,456.68,177.778C471.354,193.434,480.393,204.035,484.012,218.182C487.313,231.085,485.697,247.641,480.211,258.586C475.034,268.914,464.587,276.123,453.409,282.828C439.667,291.073,426.622,296.046,402.01,301.326C345.272,313.499,171.41,314.718,112.563,323.723C86.315,327.74,73.977,330.399,56.281,336.692C39.21,342.763,8.04,360.405,8.04,360.405" stroke="#71717a" stroke-width="3" fill="none" stroke-linecap="round" stroke-miterlimit="4"></path><path d="M1596,627.903C1596,627.903,1529.06,627.701,1495.477,622.6C1460.717,617.321,1425.541,607.869,1390.955,596.05C1354.953,583.748,1316.341,567.555,1283.779,549.495C1253.695,532.809,1221.118,510.323,1201.628,492.929C1188.852,481.527,1181.048,472.631,1173.476,460.606C1165.804,448.422,1158.602,437.494,1156.04,420.202C1151.918,392.387,1177.412,329.849,1168.897,307.071C1164.117,294.286,1155.24,292.014,1142.461,282.828C1117.34,264.771,1050.593,236.558,1021.106,215.849C1002.076,202.485,991.252,194.62,977.715,177.778C959.766,155.447,941.127,118.883,928.753,88.889C917.209,60.91,904.424,4,904.424,4" stroke="#71717a" stroke-width="3" fill="none" stroke-linecap="round" stroke-miterlimit="4"></path><path d="M1596,403.504C1596,403.504,1540.276,393.888,1511.558,386.317C1480.72,378.187,1448.214,367.324,1417.07,355.556C1385.535,343.64,1345.388,328.441,1323.547,315.152C1310.156,307.004,1297.532,300.832,1293.899,290.909C1290.533,281.716,1294.035,270.863,1299.893,258.586C1310.427,236.51,1352.954,202.242,1368.937,177.778C1380.313,160.364,1388.444,147.127,1392.376,129.293C1396.684,109.752,1396.624,85.245,1391.322,64.646C1385.858,43.422,1359.162,4,1359.162,4" stroke="#71717a" stroke-width="3" fill="none" stroke-linecap="round" stroke-miterlimit="4"></path><path d="M175.166,4C175.166,4,227.757,34.177,258.604,56.566C301.377,87.611,377.037,146.385,404.426,177.778C418.151,193.508,427.73,205.058,429.617,218.182C431.2,229.199,426.648,242.007,420.602,250.505C414.661,258.855,404.202,264.033,393.97,268.961C382.324,274.569,371.385,277.964,353.769,281.029C321.957,286.564,262.625,288.908,217.085,288.267C171.503,287.626,112.142,283.939,80.402,277.167C62.705,273.392,52.488,269.192,40.201,262.977C28.465,257.041,8.04,241.108,8.04,241.108" stroke="#71717a" stroke-width="3" fill="none" stroke-linecap="round" stroke-miterlimit="4"></path><path d="M1596,612.796C1596,612.796,1507.363,612.477,1463.317,603.72C1417.346,594.582,1366.966,577.387,1325.996,557.576C1288.931,539.653,1248.985,513.942,1226.598,492.929C1212.006,479.234,1202.646,465.894,1196.518,452.525C1191.549,441.685,1189.07,430.948,1189.3,420.202C1189.532,409.399,1193.395,397.025,1197.988,387.879C1202.032,379.824,1207.075,373.579,1214.07,367.504C1222.447,360.23,1235.126,352.706,1246.231,348.766C1256.615,345.082,1265.824,343.861,1278.392,343.761C1296.145,343.62,1314.411,347.136,1342.714,352.727C1399.509,363.947,1596,417.831,1596,417.831" stroke="#71717a" stroke-width="3" fill="none" stroke-linecap="round" stroke-miterlimit="4"></path><path d="M1330.088,4C1330.088,4,1348.697,27.492,1355.375,40.404C1361.95,53.118,1367.589,67.901,1370.008,80.808C1372.107,92.004,1372.371,102.157,1370.757,113.131C1368.994,125.12,1364.934,138.136,1358.794,149.812C1352.135,162.476,1342.334,174.486,1331.223,185.859C1318.723,198.652,1302.247,211.872,1286.432,221.801C1271.175,231.379,1253.896,240.095,1238.191,244.807C1224.505,248.913,1214.211,251.001,1197.99,250.39C1172.691,249.437,1132.051,241.474,1101.508,229.491C1070.343,217.264,1036.811,199.781,1013.065,177.142C990.118,155.264,973.059,122.042,960.293,96.97C950.164,77.075,943.302,57.41,939.021,40.404C935.682,27.146,934.128,4,934.128,4" stroke="#71717a" stroke-width="3" fill="none" stroke-linecap="round" stroke-miterlimit="4"></path><path d="M128.927,4C128.927,4,187.095,36.177,214.084,56.566C242.089,77.722,269.795,105.149,293.589,129.293C314.903,150.921,343.093,174.836,351.01,193.939C355.855,205.63,356.76,218.037,352.936,226.263C349.441,233.778,339.198,238.561,331.265,242.424C323.385,246.262,316.805,247.877,305.528,249.428C284.993,252.254,245.715,252.97,217.085,250.118C189.494,247.369,166.268,241.808,136.683,233.285C98.452,222.273,8.04,185.661,8.04,185.661" stroke="#71717a" stroke-width="3" fill="none" stroke-linecap="round" stroke-miterlimit="4"></path><path d="M1298.36,4C1298.36,4,1334.386,53.439,1341.128,72.727C1345.402,84.957,1345.63,94.345,1344.888,105.051C1344.136,115.896,1341.41,127.053,1336.488,137.374C1331.09,148.693,1322.129,160.185,1312.636,169.697C1302.857,179.494,1290.714,188.032,1278.392,195.069C1265.922,202.19,1252.474,208.08,1238.191,212.07C1223.096,216.286,1208.414,219.457,1189.95,219.099C1164.868,218.612,1128.168,212.872,1101.508,202.688C1076.515,193.14,1053.213,180.426,1033.964,161.616C1012.757,140.893,993.582,108.461,982.232,80.808C971.965,55.792,965.903,4,965.903,4" stroke="#71717a" stroke-width="3" fill="none" stroke-linecap="round" stroke-miterlimit="4"></path><path d="M1596,596.359C1596,596.359,1518.32,599.141,1479.397,593.035C1438.765,586.662,1394.545,573.734,1357.32,557.576C1322.585,542.498,1283.557,518.937,1262.172,501.01C1248.892,489.877,1240.652,480.163,1234.286,468.687C1228.618,458.469,1224.556,446.404,1224.251,436.364C1223.989,427.741,1226.485,419.248,1230.191,412.121C1233.853,405.081,1239.464,398.947,1246.231,393.791C1254.008,387.867,1264.788,382.924,1275.191,379.798C1286.147,376.506,1297.005,375.187,1310.553,375.041C1328.8,374.844,1347.195,377.541,1374.874,382.285C1426.706,391.17,1596,433.444,1596,433.444" stroke="#71717a" stroke-width="3" fill="none" stroke-linecap="round" stroke-miterlimit="4"></path><path d="M76.209,4C76.209,4,122.522,26.882,142.123,40.404C159.977,52.721,176.034,65.757,189.784,80.808C203.176,95.468,217.491,114.102,223.88,129.293C228.637,140.606,232.687,153.253,229.872,161.616C227.465,168.765,219.72,174.417,212.102,177.778C202.858,181.855,192.935,181.762,176.884,181.057C141.526,179.503,8.04,150.221,8.04,150.221" stroke="#71717a" stroke-width="3" fill="none" stroke-linecap="round" stroke-miterlimit="4"></path><path d="M1261.743,4C1261.743,4,1285.742,28.104,1294.155,40.404C1301.389,50.981,1307.139,61.459,1310.553,72.502C1313.81,83.038,1315.388,95.059,1314.72,105.051C1314.137,113.787,1311.922,121.534,1308.251,129.293C1304.246,137.757,1298.05,146.3,1290.827,153.535C1282.989,161.387,1273.073,168.401,1262.312,174.101C1250.44,180.388,1235.707,185.61,1222.111,188.745C1208.895,191.792,1197.209,193.595,1181.91,192.937C1161.252,192.05,1131.372,187.885,1109.548,179.037C1088.689,170.581,1069.448,159.076,1053.266,142.119C1034.556,122.513,1015.546,89.787,1007.481,64.646C1000.847,43.969,1002.184,4,1002.184,4" stroke="#71717a" stroke-width="3" fill="none" stroke-linecap="round" stroke-miterlimit="4"></path><path d="M1596,577.351C1596,577.351,1523.581,583.274,1487.437,578.857C1450.16,574.302,1409.404,563.412,1375.744,549.495C1344.993,536.78,1311.353,517.347,1292.434,501.01C1280.043,490.311,1271.526,479.283,1266.65,468.687C1262.883,460.5,1260.086,452.659,1262.01,444.444C1264.47,433.935,1274.821,419.498,1286.432,412.261C1300.266,403.639,1317.218,401.222,1342.714,401.259C1396.815,401.337,1596,451.529,1596,451.529" stroke="#71717a" stroke-width="3" fill="none" stroke-linecap="round" stroke-miterlimit="4"></path><path d="M11.412,4C11.412,4,73.62,34.558,91.611,48.485C102.475,56.894,109.679,63.987,114.64,72.727C118.944,80.311,122.596,90.506,121.418,96.97C120.51,101.954,116.904,105.831,112.563,109.037C106.893,113.224,99.12,115.764,88.442,117.419C69.021,120.43,4,115.155,4,115.155" stroke="#71717a" stroke-width="3" fill="none" stroke-linecap="round" stroke-miterlimit="4"></path><path d="M1214.07,4.35C1214.07,4.35,1255.564,37.939,1266.019,56.566C1274.627,71.9,1278.891,91.794,1277.892,105.051C1277.169,114.657,1272.953,122.142,1267.912,129.293C1262.593,136.837,1256.24,143.433,1246.231,148.819C1231.126,156.949,1203.402,165.103,1181.91,165.537C1160.52,165.969,1136.461,160.632,1117.588,151.567C1099.418,142.841,1082.766,129.391,1070.217,113.131C1056.68,95.593,1043.201,68.366,1040.918,48.485C1039.093,32.591,1049.79,4,1049.79,4" stroke="#71717a" stroke-width="3" fill="none" stroke-linecap="round" stroke-miterlimit="4"></path><path d="M1596,552.024C1596,552.024,1540.58,563.076,1511.558,562.261C1480.405,561.386,1444.662,554.53,1415.075,545.023C1387.772,536.249,1357.481,521.378,1339.742,509.091C1328.264,501.14,1320.174,493.661,1314.569,484.848C1309.77,477.304,1304.911,468.389,1306.297,460.606C1307.852,451.867,1316.682,441.044,1326.633,435.518C1339.821,428.195,1361.744,428.048,1382.915,428.493C1410.52,429.072,1444.795,437.234,1478.024,444.444C1515.417,452.559,1596,475.981,1596,475.981" stroke="#71717a" stroke-width="3" fill="none" stroke-linecap="round" stroke-miterlimit="4"></path><path d="M1133.668,22.217C1147.804,20.277,1168.012,26.685,1181.91,34.041C1195.244,41.099,1208.905,54.108,1215.885,64.646C1221.112,72.539,1223.856,81.573,1224.256,88.889C1224.578,94.77,1223.313,100.205,1220.586,105.051C1217.572,110.408,1212.008,115.704,1206.03,119.137C1199.382,122.954,1191.346,125.796,1181.91,125.904C1168.605,126.058,1146.852,121.531,1133.668,113.559C1121.262,106.057,1109.449,93.327,1104.145,80.808C1099.062,68.811,1096.098,50.228,1101.399,40.404C1106.47,31.009,1121.461,23.893,1133.668,22.217" stroke="#71717a" stroke-width="3" fill="none" stroke-linecap="round" stroke-miterlimit="4"></path><path d="M1398.995,463.364C1415.431,460.088,1441.782,464.248,1463.908,468.687C1488.193,473.558,1522.944,483.731,1538.528,492.929C1547.084,497.98,1553.989,504.204,1555.795,509.091C1556.854,511.956,1556.85,514.581,1554.897,517.172C1550.431,523.098,1530.788,530.959,1515.545,533.333C1496.199,536.347,1468.941,533.28,1447.236,527.811C1425.812,522.412,1398.198,512.161,1386.076,501.01C1378.287,493.845,1371.02,483.004,1372.947,476.768C1374.932,470.339,1387.972,465.56,1398.995,463.364" stroke="#71717a" stroke-width="3" fill="none" stroke-linecap="round" stroke-miterlimit="4"></path></svg>