<svg class=" " xmlns="http://www.w3.org/2000/svg" viewBox="0 0 1600 800"><path d="M8.971,501.01C10.277,503.444,24.825,503.398,28.548,501.01C31.057,499.401,33.23,494.754,32.257,492.929C30.936,490.452,20.032,488.574,16.08,490.3C12.581,491.829,7.913,499.038,8.971,501.01" stroke="#71717a" stroke-width="3" fill="none" stroke-linecap="round" stroke-miterlimit="4"></path><path d="M4,548.754C4,548.754,55.953,540.242,72.362,533.119C82.819,528.58,89.763,523.934,95.962,517.172C102.079,510.499,108.608,501.193,109.439,492.929C110.235,485.016,106.48,475.357,101.754,468.687C96.91,461.85,88.664,456.86,80.402,452.625C71.125,447.869,59.7,444.494,48.241,442.589C35.722,440.508,8.04,441.501,8.04,441.501" stroke="#71717a" stroke-width="3" fill="none" stroke-linecap="round" stroke-miterlimit="4"></path><path d="M4,570.416C4,570.416,39.356,566.385,56.281,561.566C73.264,556.73,91.911,549.685,105.715,541.414C117.357,534.439,127.978,526.894,134.935,517.172C141.574,507.892,147.252,495.2,147.246,484.848C147.24,475.276,142.789,465.451,136.683,457.216C129.521,447.555,116.979,438.891,104.523,432.26C90.608,424.852,72.569,419.414,56.281,416.354C40.398,413.369,8.04,413.796,8.04,413.796" stroke="#71717a" stroke-width="3" fill="none" stroke-linecap="round" stroke-miterlimit="4"></path><path d="M4,587.56C4,587.56,51.016,580.691,72.362,574.014C92.398,567.746,112.633,559.754,128.66,549.495C142.915,540.371,156.801,529.036,164.924,517.172C171.77,507.172,176.509,495.705,177.012,484.848C177.508,474.153,174.506,462.673,168.234,452.525C160.339,439.751,143.929,426.745,128.643,417.181C112.277,406.94,92.124,399.056,72.362,394.082C51.986,388.955,8.04,387.394,8.04,387.394" stroke="#71717a" stroke-width="3" fill="none" stroke-linecap="round" stroke-miterlimit="4"></path><path d="M4,228.447C4,228.447,40.839,219.347,54.274,210.101C66.291,201.831,80.98,188.221,82.351,177.778C83.44,169.488,78.201,159.821,70.521,153.535C58.638,143.81,8.04,137.249,8.04,137.249" stroke="#71717a" stroke-width="3" fill="none" stroke-linecap="round" stroke-miterlimit="4"></path><path d="M4,602.5C4,602.5,56.208,594.089,80.402,586.368C103.678,578.94,127.718,569.905,146.694,557.576C163.948,546.366,181.347,532.023,190.713,517.172C198.59,504.682,203.534,490.159,203.083,476.768C202.626,463.221,196.228,448.605,187.668,436.364C177.852,422.327,161.806,410.162,144.724,399.095C124.487,385.984,96.287,372.654,72.362,365.47C50.762,358.984,8.04,355.851,8.04,355.851" stroke="#71717a" stroke-width="3" fill="none" stroke-linecap="round" stroke-miterlimit="4"></path><path d="M4,616.224C4,616.224,61.662,606.141,88.442,597.459C114.211,589.105,141.068,578.785,161.951,565.657C180.278,554.135,197.661,540.893,208.567,525.253C218.564,510.916,225.659,491.456,226.882,476.768C227.857,465.057,224.69,454.527,220.498,444.444C216.185,434.072,211.678,426.796,201.005,415.524C178.651,391.917,100.322,345.397,78.997,323.232C69.623,313.49,63.073,307.343,62.088,298.99C61.164,291.149,65.384,284.41,71.613,274.747C84.566,254.653,137.189,214.041,150.096,193.939C156.298,184.28,158.943,177.041,159.52,169.697C159.98,163.841,158.713,158.565,156.008,153.535C152.848,147.659,147.257,142.161,140.245,137.374C130.737,130.884,117.952,125.495,102.029,121.212C77.969,114.741,8.04,109.362,8.04,109.362" stroke="#71717a" stroke-width="3" fill="none" stroke-linecap="round" stroke-miterlimit="4"></path><path d="M4,629.21C4,629.21,73.08,616.04,104.523,604.989C134.252,594.54,165.348,581.861,188.174,565.657C207.738,551.768,225.537,534.731,235.718,517.172C244.488,502.047,249.682,484.808,249.413,468.687C249.143,452.485,244.02,437.582,233.955,420.202C218.466,393.457,167.641,354.656,152.587,331.313C144.457,318.705,139.305,309.866,138.758,298.99C138.222,288.314,142.293,279.143,148.893,266.667C160.405,244.907,203.1,205.746,212.833,185.859C217.623,176.07,219.041,168.849,218.788,161.616C218.579,155.652,217.234,150.852,213.597,145.455C208.166,137.397,196.003,127.735,184.549,121.212C171.583,113.828,158.319,109.492,138.841,105.051C106.753,97.734,8.04,90.804,8.04,90.804" stroke="#71717a" stroke-width="3" fill="none" stroke-linecap="round" stroke-miterlimit="4"></path><path d="M4,641.776C4,641.776,79.936,626.182,113.896,614.141C145.131,603.067,176.839,590.137,200.822,573.737C221.326,559.718,239.621,543.615,251.388,525.253C262.265,508.278,269.83,486.97,270.975,468.687C272.017,452.052,268.24,437.59,260.731,420.202C250.15,395.701,215.898,362.462,204.6,339.394C197.188,324.261,191.765,311.681,191.935,298.99C192.088,287.589,196.22,279.182,203.027,266.667C214.829,244.965,256.534,205.708,266.479,185.859C271.395,176.046,273.333,169.647,273.013,161.616C272.688,153.484,269.672,144.769,264.354,137.374C257.794,128.25,246.067,119.995,233.573,113.131C218.101,104.631,201.223,98.67,176.884,93.229C135.977,84.083,8.04,75.899,8.04,75.899" stroke="#71717a" stroke-width="3" fill="none" stroke-linecap="round" stroke-miterlimit="4"></path><path d="M4,654.179C4,654.179,66.387,641.133,96.482,631.716C126.345,622.37,159.15,610.421,183.907,597.98C203.809,587.978,220.238,578.197,235.112,565.657C249.205,553.774,262.32,539.507,271.481,525.253C279.726,512.422,285.68,498.612,289.017,484.848C292.217,471.652,293.069,457.437,291.699,444.444C290.377,431.904,286.898,422.179,281.407,408.151C273.107,386.948,248.356,351.932,242.386,331.313C238.723,318.658,237.66,309.551,239.349,298.99C241.11,287.984,245.858,278.626,253.433,266.667C265.256,248.003,297.654,220.6,309.952,202.02C317.906,190.004,324.231,179.912,325.604,169.697C326.742,161.232,324.395,152.797,321.101,145.455C317.758,138.002,313.478,132.133,305.528,125.38C292.034,113.918,265.558,99.325,241.206,90.463C212.961,80.184,179.856,75.404,144.724,70.835C103.295,65.447,8.04,62.904,8.04,62.904" stroke="#71717a" stroke-width="3" fill="none" stroke-linecap="round" stroke-miterlimit="4"></path><path d="M4,666.607C4,666.607,66.25,652.828,96.482,643.484C126.552,634.189,159.195,622.782,184.925,610.742C206.266,600.755,224.844,590.702,241.206,578.456C256.069,567.333,269.309,554.832,279.858,541.414C289.713,528.88,297.668,515.569,303.309,501.01C309.122,486.007,313.054,468.011,313.815,452.525C314.505,438.503,312.538,427.352,309.142,412.121C304.476,391.204,288.217,359,284.741,339.394C282.484,326.665,281.286,318.099,283.861,307.071C286.921,293.961,294.845,280.913,305.203,266.667C319.752,246.654,356.706,221.111,368.054,202.02C375.007,190.323,378.328,179.662,378.099,169.697C377.9,161,373.829,153.143,369.328,145.455C364.313,136.886,358.543,129.403,348.407,121.212C331.841,107.825,301.312,90.294,273.367,80.166C242.178,68.862,207.614,64.349,168.844,59.537C121.181,53.622,8.04,51.152,8.04,51.152" stroke="#71717a" stroke-width="3" fill="none" stroke-linecap="round" stroke-miterlimit="4"></path><path d="M1342.35,290.909C1349.362,298.233,1364.933,303.921,1377.797,307.071C1391.682,310.47,1411.562,312.121,1423.116,309.447C1431.073,307.605,1440.383,304.202,1441.931,298.99C1443.678,293.108,1436.119,281.156,1429.119,274.747C1420.518,266.872,1403.884,261.324,1390.955,258.696C1378.656,256.196,1363.465,255.427,1353.495,258.586C1345.671,261.065,1336.318,266.314,1334.673,271.929C1333.124,277.219,1337.267,285.6,1342.35,290.909" stroke="#71717a" stroke-width="3" fill="none" stroke-linecap="round" stroke-miterlimit="4"></path><path d="M4,679.196C4,679.196,144.107,640.642,188.19,622.222C214.461,611.245,231.315,601.682,248.556,589.899C263.251,579.857,274.992,570.335,286.362,557.576C298.687,543.746,310.971,525.864,318.994,509.091C326.471,493.46,331.739,480.671,333.989,460.606C337.472,429.552,322.912,366.827,324.69,339.394C325.617,325.096,326.862,317.375,331.445,307.071C336.491,295.726,344.265,286.308,355.062,274.747C371.06,257.619,409.878,234.313,422.317,218.182C429.188,209.27,433.008,202.758,433.794,193.939C434.673,184.086,430.274,171.871,425.049,161.616C419.232,150.198,409.362,139.51,399.009,129.293C387.377,117.815,372.69,106.311,357.78,96.97C342.472,87.379,328.673,79.763,308.166,72.727C278.226,62.455,236.135,54.061,192.965,48.589C138.825,41.727,8.04,40.147,8.04,40.147" stroke="#71717a" stroke-width="3" fill="none" stroke-linecap="round" stroke-miterlimit="4"></path><path d="M1256.161,266.667C1256.77,274.477,1261.591,283.589,1267.981,290.909C1276.108,300.22,1291.277,308.458,1304.252,315.152C1317.498,321.985,1328.985,327.066,1346.755,331.313C1374.283,337.892,1426.706,344.771,1455.276,342.84C1474.29,341.555,1491.495,337.625,1502.214,331.313C1509.451,327.052,1515.282,321.636,1517.188,315.152C1519.203,308.297,1516.513,298.524,1512.89,290.909C1508.758,282.222,1500.478,274.324,1491.944,266.667C1481.88,257.636,1468.785,248.578,1455.276,241.342C1440.694,233.531,1425.923,226.188,1407.035,222.125C1382.405,216.826,1340.817,215.249,1318.822,218.182C1305.172,220.002,1296.066,223.572,1286.432,228.549C1277.36,233.235,1267.308,239.543,1262.312,246.654C1258.149,252.578,1255.625,259.786,1256.161,266.667" stroke="#71717a" stroke-width="3" fill="none" stroke-linecap="round" stroke-miterlimit="4"></path><path d="M4,692.145C4,692.145,148.957,650.7,192.965,633.094C217.742,623.182,232.25,615.748,249.246,605.333C264.839,595.778,278.945,585.77,291.57,573.737C304.14,561.757,315.515,548.04,324.87,533.333C334.343,518.442,342.212,501.333,347.92,484.848C353.412,468.986,356.319,454.699,358.91,436.364C362.216,412.967,359.645,376.23,363.59,355.556C366.149,342.148,368.407,333.44,374.276,323.232C380.885,311.739,389.682,302.197,402.878,290.909C423.459,273.303,477.259,251.439,491.345,234.343C498.364,225.826,501.322,218.669,500.93,210.101C500.468,200.003,492.586,189.003,484.597,177.778C473.692,162.455,454.469,144.114,437.658,129.293C420.866,114.488,402.318,100.259,383.793,88.889C366.256,78.125,351.524,69.855,329.648,62.239C299.43,51.72,260.645,43.454,217.085,37.939C158.374,30.507,8.04,29.732,8.04,29.732" stroke="#71717a" stroke-width="3" fill="none" stroke-linecap="round" stroke-miterlimit="4"></path><path d="M1208.363,274.747C1212.278,284.255,1220.269,292.519,1230.151,300.673C1243.631,311.795,1265.022,322.799,1285.212,331.313C1307.501,340.712,1333.489,348.068,1358.794,353.294C1384.775,358.66,1413.856,361.922,1439.196,362.747C1461.798,363.483,1484.556,362.57,1503.518,359.404C1519.069,356.807,1534.271,354.324,1545.17,347.475C1554.605,341.546,1564.62,332.558,1566.765,323.232C1568.947,313.746,1563.688,301.542,1557.627,290.909C1549.815,277.207,1534.029,262.746,1519.171,250.505C1502.976,237.163,1483.188,224.509,1463.317,214.849C1443.165,205.053,1419.996,196.89,1398.995,192.326C1379.87,188.17,1361.443,186.658,1342.714,187.182C1323.922,187.709,1304.677,190.425,1286.432,195.524C1267.938,200.694,1246.583,208.412,1232.539,218.182C1221.104,226.137,1209.615,236.174,1206.03,246.458C1202.962,255.259,1204.779,266.043,1208.363,274.747" stroke="#71717a" stroke-width="3" fill="none" stroke-linecap="round" stroke-miterlimit="4"></path><path d="M4,705.581C4,705.581,140.354,668.531,192.965,646.153C233.47,628.924,271.969,608.262,296.027,589.899C311.484,578.101,319.609,568.037,329.648,554.986C340.212,541.253,348.583,529.225,357.46,509.091C371.961,476.203,385.554,401.216,397.814,371.717C404.035,356.747,406.605,349.652,415.557,339.394C427.276,325.964,445.204,313.441,466.332,301.757C495.279,285.749,557.288,274.238,576.843,258.586C586.551,250.816,593.637,242.827,593.191,234.343C592.655,224.151,579.32,214.827,566.058,202.02C540.439,177.281,482.439,131.752,441.982,105.051C407.071,82.009,375.483,61.688,339.263,48.485C303.183,35.332,269.478,30.847,225.126,25.851C164.534,19.026,8.04,19.645,8.04,19.645" stroke="#71717a" stroke-width="3" fill="none" stroke-linecap="round" stroke-miterlimit="4"></path><path d="M1596,352.537C1596,352.537,1567.703,366.719,1551.759,370.902C1534.414,375.453,1515.945,376.703,1495.477,377.671C1471.098,378.824,1441.799,378.042,1415.075,375.647C1388.197,373.239,1360.936,369.28,1334.673,363.205C1308.585,357.17,1281.834,349.182,1258,339.394C1235.708,330.239,1212.631,319.169,1195.65,307.071C1181.768,297.181,1168.209,285.671,1161.627,274.747C1156.806,266.746,1153.37,258.806,1154.823,250.505C1156.649,240.078,1166.939,227.908,1177.911,218.182C1192.339,205.391,1216.654,194.064,1238.191,185.246C1260.73,176.018,1286.919,168.283,1310.553,164.661C1332.41,161.31,1354.272,160.89,1374.874,162.92C1394.387,164.842,1412.115,169.23,1431.156,175.711C1452.252,182.892,1475.26,193.715,1495.477,205.417C1515.428,216.965,1534.782,230.558,1551.759,245.321C1568.173,259.595,1596,292.243,1596,292.243" stroke="#71717a" stroke-width="3" fill="none" stroke-linecap="round" stroke-miterlimit="4"></path><path d="M4,719.701C4,719.701,125.978,685.306,176.884,665.674C219.008,649.429,262.423,630.534,289.447,613.605C306.637,602.837,316.639,593.785,328.274,581.818C340.011,569.746,348.561,559.974,359.497,541.414C378.757,508.725,403.316,428.718,422.194,395.96C432.834,377.495,438.77,367.259,452.187,355.556C468.145,341.636,488.243,332.207,514.573,321.285C554.782,304.604,642.892,291.176,673.923,274.747C688.788,266.877,702.704,258.917,703.313,250.505C703.878,242.709,692.71,235.031,681.335,226.263C658.354,208.547,603.048,188.567,562.814,164.694C518.118,138.173,465.08,95.28,426.032,72.727C398.749,56.969,381.193,46.635,353.769,37.319C321.009,26.19,285.744,19.498,241.206,14.58C177.735,7.571,8.04,9.769,8.04,9.769" stroke="#71717a" stroke-width="3" fill="none" stroke-linecap="round" stroke-miterlimit="4"></path><path d="M1596,381.122C1596,381.122,1503.64,392.764,1455.276,390.838C1403.352,388.77,1335.672,376.7,1294.472,366.775C1267.856,360.364,1252.226,354.286,1230.151,345.158C1205.329,334.893,1173.952,320.525,1153.276,307.071C1137.405,296.743,1122.465,285.792,1114.412,274.747C1108.621,266.806,1103.645,258.881,1104.644,250.505C1105.875,240.179,1116.468,228.406,1127.739,218.182C1143.822,203.593,1172.582,189.822,1197.815,177.778C1225.154,164.728,1258.888,151.027,1286.432,143.642C1309.24,137.527,1330.016,133.695,1350.754,133.512C1370.127,133.342,1387.954,136.342,1407.035,141.365C1428.085,146.907,1450.324,156.442,1471.357,166.775C1493.239,177.525,1515.09,190.67,1535.678,205.076C1556.671,219.765,1596,254.257,1596,254.257" stroke="#71717a" stroke-width="3" fill="none" stroke-linecap="round" stroke-miterlimit="4"></path><path d="M1262.312,4.396C1262.312,4.396,1321.164,21.879,1350.754,21.859C1380.571,21.838,1440.536,4,1440.536,4" stroke="#71717a" stroke-width="3" fill="none" stroke-linecap="round" stroke-miterlimit="4"></path><path d="M4,734.808C4,734.808,152.246,691.008,209.045,667.77C251.518,650.393,288.196,636.072,317.091,614.141C341.629,595.517,356.446,576.878,375.301,549.495C401.14,511.967,425.156,436.171,449.727,404.04C464.623,384.562,477.135,374.447,494.152,363.636C511.945,352.334,528.106,347.485,554.774,338.444C603.198,322.027,721.617,300.409,763.953,282.828C783.926,274.534,800.853,265.576,805.583,258.586C807.531,255.707,807.753,253.385,806.774,250.505C805.124,245.648,799.671,240.485,790.082,234.343C761.303,215.91,659.144,190.183,594.975,158.651C527.001,125.248,441.728,59.991,393.97,37.228C369.413,25.523,356.125,21.626,335.562,16.162C313.647,10.338,266.092,4,266.092,4" stroke="#71717a" stroke-width="3" fill="none" stroke-linecap="round" stroke-miterlimit="4"></path><path d="M964.824,795.61C964.824,795.61,866.742,767.347,828.141,760.614C800.434,755.782,779.861,753.109,755.779,753.74C731.62,754.374,707.084,757.675,683.417,764.465C658.85,771.513,611.181,796,611.181,796" stroke="#71717a" stroke-width="3" fill="none" stroke-linecap="round" stroke-miterlimit="4"></path><path d="M1596,399.545C1596,399.545,1496.9,405.058,1447.236,401.843C1396.899,398.584,1344.698,391.781,1295.992,379.798C1248.335,368.073,1200.2,351.148,1157.928,331.313C1118.735,312.922,1063.007,285.961,1050.016,266.667C1044.279,258.146,1043.569,249.844,1046.25,242.424C1049.528,233.357,1058.813,228.41,1073.723,218.182C1117.461,188.177,1353.876,111.861,1353.441,72.727C1353.136,45.259,1214.07,4.143,1214.07,4.143" stroke="#71717a" stroke-width="3" fill="none" stroke-linecap="round" stroke-miterlimit="4"></path><path d="M1596,224.96C1596,224.96,1544.388,184.666,1511.558,162.89C1468.998,134.661,1359.299,99.953,1360.268,72.727C1361.17,47.363,1496.814,4,1496.814,4" stroke="#71717a" stroke-width="3" fill="none" stroke-linecap="round" stroke-miterlimit="4"></path><path d="M4,751.25C4,751.25,172.385,699.486,233.166,674.209C275.3,656.686,310.284,642.582,337.066,622.222C358.28,606.096,369.244,591.608,385.93,568.14C410.611,533.425,436.06,461.306,462.584,428.283C480.605,405.845,496.161,392.716,517.995,379.798C542.201,365.476,566.408,359.748,603.015,348.791C666.553,329.774,809.82,297.238,868.342,286.122C896.915,280.694,911.931,276.943,932.663,276.829C952.042,276.722,964.705,278.196,988.945,284.326C1037.049,296.492,1136.254,343.993,1197.99,363.726C1245.596,378.943,1283.473,389.139,1326.633,397.365C1369.242,405.486,1411.352,410.062,1455.276,412.994C1501.051,416.049,1596,414.74,1596,414.74" stroke="#71717a" stroke-width="3" fill="none" stroke-linecap="round" stroke-miterlimit="4"></path><path d="M1177.86,4C1177.86,4,1234.261,40.718,1243.783,56.566C1248.933,65.136,1250.078,73.093,1248.307,80.808C1246.35,89.336,1239.246,96.793,1230.416,105.051C1216.483,118.08,1191.046,132.291,1167.207,145.455C1138.58,161.262,1100.65,178.512,1069.347,191.56C1041.504,203.166,1013.646,214.461,988.945,220.871C968.786,226.101,953.936,229.857,932.663,229.848C904.809,229.836,873.586,222.584,836.181,214.375C782.615,202.62,693.07,179.003,643.216,160.336C609.989,147.894,592.94,138.64,562.814,122.14C521.249,99.374,459.732,52.72,419.128,32.323C391.607,18.498,346.613,4,346.613,4" stroke="#71717a" stroke-width="3" fill="none" stroke-linecap="round" stroke-miterlimit="4"></path><path d="M1596,794.695L1543.719,795.566" stroke="#71717a" stroke-width="3" fill="none" stroke-linecap="round" stroke-miterlimit="4"></path><path d="M1415.075,795.511C1415.075,795.511,1187.108,797.263,1085.427,784.581C996.001,773.427,900.138,740.306,836.181,730.146C796.751,723.882,772.172,719.705,739.698,720.46C706.393,721.235,672.326,724.191,638.796,735.354C601.325,747.828,526.772,796,526.772,796" stroke="#71717a" stroke-width="3" fill="none" stroke-linecap="round" stroke-miterlimit="4"></path><path d="M1596,197.669C1596,197.669,1520.911,144.063,1498.89,121.212C1484.884,106.678,1470.889,93.933,1469.433,80.808C1468.21,69.792,1474.973,58.974,1483.439,48.485C1495.909,33.037,1545.559,4,1545.559,4" stroke="#71717a" stroke-width="3" fill="none" stroke-linecap="round" stroke-miterlimit="4"></path><path d="M4,769.634C4,769.634,64.491,755.25,104.523,741.594C166.853,720.331,289.949,677.212,338.965,646.465C365.168,630.028,375.16,620.169,392.599,597.98C418.117,565.512,442.966,495.091,466.332,461.861C481.67,440.049,492.353,426.121,510.78,412.121C531.569,396.328,556.476,385.831,586.935,374.593C628.437,359.281,689.263,346.554,739.698,335.737C788.392,325.293,841.949,314.222,884.422,310.375C917.375,307.391,934.431,304.553,972.864,309.743C1048.939,320.016,1219.791,386.119,1306.319,404.04C1360.137,415.187,1392.975,417.763,1439.196,421.799C1489.206,426.166,1596,428.283,1596,428.283" stroke="#71717a" stroke-width="3" fill="none" stroke-linecap="round" stroke-miterlimit="4"></path><path d="M1146.713,4C1146.713,4,1192.937,41.172,1199.939,56.566C1203.928,65.337,1203.571,73.074,1201.446,80.808C1199.11,89.308,1192.767,97.096,1184.918,105.051C1174.048,116.067,1156.728,127.116,1138.843,137.374C1116.826,150.001,1086.261,163.501,1061.307,172.903C1039.165,181.246,1019.268,187.604,996.985,192.165C973.778,196.916,951.808,200.354,924.623,200.366C889.529,200.383,845.771,194.499,804.02,186.812C757.688,178.281,699.988,163.795,659.296,149.512C628.042,138.542,610.611,129.817,578.894,113.33C529.47,87.636,394.808,4,394.808,4" stroke="#71717a" stroke-width="3" fill="none" stroke-linecap="round" stroke-miterlimit="4"></path><path d="M1596,779.542C1596,779.542,1442.17,783.547,1366.834,782.257C1293.474,781.001,1208.92,777.902,1149.749,772.245C1108.497,768.302,1086.163,764.83,1045.226,757.033C985.737,745.703,890.261,715.641,828.141,705.769C782.383,698.497,741.47,695.63,707.538,695.7C682.753,695.751,663.775,697.6,643.216,701.337C623.658,704.893,608.805,707.581,586.935,717.05C551.626,732.337,456.689,796,456.689,796" stroke="#71717a" stroke-width="3" fill="none" stroke-linecap="round" stroke-miterlimit="4"></path><path d="M1596,169.193C1596,169.193,1549.482,130.389,1537.313,113.131C1529.276,101.733,1522.562,92.104,1522.876,80.808C1523.231,68.009,1533.163,52.338,1543.686,40.404C1556.118,26.306,1596,4.532,1596,4.532" stroke="#71717a" stroke-width="3" fill="none" stroke-linecap="round" stroke-miterlimit="4"></path><path d="M4,790.86C4,790.86,58.126,782.429,96.482,770.575C164.163,749.66,320.016,691.615,369.849,660.264C391.656,646.546,398.117,640.469,411.55,622.222C432.914,593.203,451.573,526.369,472.102,492.929C486.657,469.219,498.013,452.324,516.288,436.364C535.796,419.326,558.619,407.108,586.935,395.144C624.227,379.388,677.138,367.562,723.618,357.119C770.908,346.494,824.833,336.418,868.342,332.175C903.612,328.736,935.067,327.741,964.824,329.885C990.773,331.755,1005.543,335.253,1037.186,342.128C1099.312,355.626,1217.733,398.487,1310.553,414.93C1403.982,431.48,1596,440.798,1596,440.798" stroke="#71717a" stroke-width="3" fill="none" stroke-linecap="round" stroke-miterlimit="4"></path><path d="M1596,765.37C1596,765.37,1459.617,771.486,1390.955,770.624C1321.593,769.754,1241.933,766.164,1181.91,760.014C1136.077,755.318,1107.872,750.405,1061.307,741.356C996.074,728.678,898.047,697.63,828.141,686.661C772.218,677.886,716.892,674.185,675.377,674.28C646.799,674.345,626.255,676.426,603.015,680.477C580.768,684.355,563.758,686.583,538.693,697.567C497.078,715.803,383.876,796,383.876,796" stroke="#71717a" stroke-width="3" fill="none" stroke-linecap="round" stroke-miterlimit="4"></path><path d="M1118.077,4C1118.077,4,1141.568,22.627,1149.498,32.323C1155.967,40.234,1161.664,48.16,1163.825,56.566C1165.831,64.367,1165.697,73.105,1163.086,80.808C1160.189,89.354,1153.7,97.235,1145.666,105.051C1134.926,115.498,1117.574,126.189,1101.508,134.97C1084.294,144.377,1064.882,152.398,1045.226,159.086C1024.757,166.052,1002.498,171.915,980.905,175.589C959.613,179.212,941.691,181.332,916.583,181.13C881.048,180.843,830.521,175.695,787.94,167.955C744.751,160.105,696.631,147.615,659.296,134.07C628.793,123.004,609.009,112.904,578.894,96.366C537.051,73.387,434.171,4.434,434.171,4.434" stroke="#71717a" stroke-width="3" fill="none" stroke-linecap="round" stroke-miterlimit="4"></path><path d="M1596,133.556C1596,133.556,1580.118,114.592,1575.883,105.051C1572.31,96.998,1568.959,89.583,1570.441,80.808C1572.492,68.668,1595.519,40.404,1595.519,40.404" stroke="#71717a" stroke-width="3" fill="none" stroke-linecap="round" stroke-miterlimit="4"></path><path d="M1596,751.766C1596,751.766,1459.61,760.01,1390.955,759.059C1321.586,758.098,1262.437,756.674,1181.91,745.816C1069.166,730.615,872.937,675.465,779.899,662.318C731.115,655.425,709.112,655.135,667.337,653.751C615.042,652.019,521.293,665.28,490.452,655.474C477.924,651.49,471.884,646.228,466.789,638.384C461.37,630.04,460.18,617.941,460.013,606.061C459.809,591.549,463.991,573.765,468.763,557.576C473.869,540.255,481.4,521.723,490.452,505.519C499.394,489.512,511.061,473.289,522.613,460.859C532.699,450.007,540.083,442.833,554.774,433.919C578.903,419.279,619.233,402.901,659.296,390.532C709.919,374.903,788.522,360.613,836.181,353.671C868.029,349.033,890.475,347.323,916.583,346.918C941.325,346.534,956.628,346.175,988.945,350.739C1057.057,360.359,1199.178,406.367,1302.513,423.45C1401.43,439.803,1596,452.84,1596,452.84" stroke="#71717a" stroke-width="3" fill="none" stroke-linecap="round" stroke-miterlimit="4"></path><path d="M192.943,783.838C192.943,783.838,217.13,760.602,232.437,751.515C249.64,741.303,271.152,733.325,292.161,727.273C314.169,720.932,344.845,712.791,361.809,714.929C372.19,716.237,383.617,720.418,385.93,725.876C387.87,730.456,383.853,737.724,379.658,743.434C373.494,751.823,359.466,760.993,347.538,767.677C334.904,774.756,321.262,779.73,305.528,784.212C286.593,789.605,241.206,795.919,241.206,795.919" stroke="#71717a" stroke-width="3" fill="none" stroke-linecap="round" stroke-miterlimit="4"></path><path d="M1090.819,4C1090.819,4,1112.458,22.644,1119.374,32.323C1125.033,40.245,1129.741,48.277,1131.122,56.566C1132.437,64.458,1131.413,73.164,1128.174,80.808C1124.513,89.447,1118.678,96.934,1108.549,105.051C1090.629,119.41,1052.953,138.523,1021.106,148.465C986.73,159.197,947.373,163.917,908.543,164.828C867.15,165.8,821.059,159.691,779.899,152.254C740.827,145.194,701.797,135.055,667.337,122.299C636.12,110.743,611.281,98.059,581.221,80.808C545.178,60.123,467.249,4,467.249,4" stroke="#71717a" stroke-width="3" fill="none" stroke-linecap="round" stroke-miterlimit="4"></path><path d="M1064.074,4C1064.074,4,1084.324,22.659,1090.397,32.323C1095.38,40.254,1099.269,48.389,1099.89,56.566C1100.497,64.555,1097.824,73.882,1094.427,80.808C1091.307,87.169,1087.147,91.572,1081.081,96.97C1072.424,104.674,1058.401,113.591,1045.226,120.151C1030.935,127.266,1017.212,132.808,998.034,137.374C970.137,144.015,928.236,149.494,892.462,149.833C855.561,150.184,816.462,145.352,779.899,138.713C744.142,132.219,707.28,122.642,675.377,110.819C646.644,100.17,623.378,88.635,596.326,72.727C564.786,54.181,498.842,4,498.842,4" stroke="#71717a" stroke-width="3" fill="none" stroke-linecap="round" stroke-miterlimit="4"></path><path d="M1596,738.439C1596,738.439,1453.562,748.97,1382.915,747.651C1312.859,746.343,1252.205,742.573,1173.869,730.776C1070.899,715.27,930.91,670.456,820.101,652.263C723.581,636.416,593.963,636.461,546.734,622.882C529.073,617.804,520.043,615.191,512.164,606.061C503.892,596.476,500.146,578.464,499.397,565.657C498.736,554.369,501.763,544.425,505.584,533.333C510.073,520.303,517.874,505.147,526.332,492.929C534.624,480.953,544.79,470.056,555.652,460.606C566.443,451.218,575.079,444.523,591.248,436.364C619.527,422.093,671.492,404.199,715.578,392.828C763.391,380.496,819.441,370.674,868.342,366.914C912.901,363.488,945.311,363.012,996.985,368.786C1077.487,377.782,1201.289,417.217,1302.513,433.268C1400.926,448.874,1596,464.65,1596,464.65" stroke="#71717a" stroke-width="3" fill="none" stroke-linecap="round" stroke-miterlimit="4"></path><path d="M1037.186,4.016C1037.186,4.016,1064.786,35.333,1068.036,48.485C1070.219,57.32,1067.847,65.773,1065.062,72.727C1062.532,79.044,1059.72,83.325,1053.032,88.889C1039.674,100.001,1007.431,116.554,980.905,124.334C951.745,132.885,917.242,135.06,884.422,135.359C850.294,135.67,813.791,131.498,779.899,125.341C746.835,119.335,712.794,110.283,683.417,99.277C657.055,89.4,635.242,78.658,611.055,64.045C583.91,47.644,529.371,4,529.371,4" stroke="#71717a" stroke-width="3" fill="none" stroke-linecap="round" stroke-miterlimit="4"></path><path d="M1596,725.096C1596,725.096,1459.595,737.663,1390.955,736.597C1321.571,735.519,1259.438,730.529,1181.91,718.345C1082.3,702.69,947.716,660.153,844.221,641.169C757.444,625.251,653.744,622.995,603.015,607.631C577.974,600.046,560.63,593.488,549.582,581.818C541.095,572.853,536.193,561.789,536.097,549.495C535.97,533.283,546.147,509.611,558.667,492.929C572.908,473.955,595.35,458.174,620.782,444.444C652.888,427.112,698.216,414.231,739.698,404.078C783.23,393.424,831.384,385.935,876.382,383.027C919.787,380.222,953.843,380.579,1005.025,386.08C1082.491,394.407,1196.714,426.862,1294.472,441.875C1393.668,457.108,1596,476.498,1596,476.498" stroke="#71717a" stroke-width="3" fill="none" stroke-linecap="round" stroke-miterlimit="4"></path><path d="M1009.502,4C1009.502,4,1036.136,34.386,1036.992,48.485C1037.721,60.491,1030.472,73.346,1021.106,82.917C1009.068,95.218,986.303,104.064,964.824,110.377C939.21,117.906,906.523,120.486,876.382,120.844C844.94,121.217,810.746,117.336,779.899,111.742C750.615,106.432,721.627,98.633,695.6,88.889C671.636,79.917,650.735,69.937,628.979,56.566C605.424,42.088,559.899,4,559.899,4" stroke="#71717a" stroke-width="3" fill="none" stroke-linecap="round" stroke-miterlimit="4"></path><path d="M1596,711.489C1596,711.489,1465.608,726.182,1398.995,725.47C1330.317,724.737,1266.197,718.571,1189.95,706.139C1095.501,690.739,975.938,653.754,876.382,632.372C786.579,613.085,663.124,599.877,619.095,582.339C602.308,575.652,593.956,570.764,586.935,561.902C580.678,554.006,577.063,542.48,576.976,533.333C576.896,524.935,580.723,516.808,584.912,509.091C589.54,500.566,594.991,493.083,604.449,484.848C619.472,471.769,645.881,455.782,671.811,444.444C702.857,430.87,742.556,420.501,779.899,412.883C818.683,404.972,860.241,400.026,900.503,398.543C940.643,397.065,973.583,398.687,1021.106,403.941C1091.021,411.671,1187.929,435.977,1278.392,449.561C1378.504,464.594,1596,488.697,1596,488.697" stroke="#71717a" stroke-width="3" fill="none" stroke-linecap="round" stroke-miterlimit="4"></path><path d="M980.069,4C980.069,4,1001.952,28.31,1003.247,40.404C1004.405,51.211,999.275,63.883,991.316,72.727C981.286,83.874,960.81,91.47,942.253,96.97C920.612,103.383,893.518,105.268,868.342,105.678C842.126,106.105,813.861,103.215,787.94,98.85C763.005,94.652,738.892,88.848,715.578,80.457C692.251,72.061,668.863,61.394,648.02,48.485C627.577,35.823,591.531,4,591.531,4" stroke="#71717a" stroke-width="3" fill="none" stroke-linecap="round" stroke-miterlimit="4"></path><path d="M1596,697.208C1596,697.208,1470.991,714.208,1407.035,714.094C1341.063,713.975,1288.14,708.741,1206.03,695.407C1072.318,673.693,765.918,602.068,684.703,573.737C658.72,564.674,644.638,560.541,635.176,550.3C628.559,543.139,624.704,534.329,625.664,525.253C626.951,513.09,639.435,496.319,651.774,484.848C666.372,471.279,688.311,461.654,710.835,452.525C737.824,441.586,771.219,432.951,804.02,426.797C839.506,420.139,878.378,416.271,916.583,415.326C956.054,414.35,982.451,416.286,1037.186,421.614C1155.523,433.132,1596,501.489,1596,501.489" stroke="#71717a" stroke-width="3" fill="none" stroke-linecap="round" stroke-miterlimit="4"></path><path d="M947.563,4C947.563,4,967.139,29.492,967.168,40.404C967.191,49.296,961.229,58.074,954.277,64.646C945.728,72.729,931.198,77.989,916.583,82.051C898.337,87.121,874.337,89.047,852.261,89.127C828.855,89.211,802.727,86.067,779.899,81.695C758.736,77.641,738.479,71.852,719.745,64.646C702.205,57.9,686.067,50.333,670.589,40.404C654.706,30.215,625.807,4,625.807,4" stroke="#71717a" stroke-width="3" fill="none" stroke-linecap="round" stroke-miterlimit="4"></path><path d="M1596,681.772C1596,681.772,1482.378,701.199,1423.116,702.195C1360.612,703.245,1308.326,698.861,1230.151,685.952C1104.905,665.271,826.102,594.536,747.739,566.2C721.222,556.612,706.783,551.752,696.507,541.414C689.449,534.313,684.075,525.55,684.96,517.172C686.049,506.849,698.147,494.124,709.781,484.848C724.843,472.84,749.386,463.822,771.859,456.356C796.517,448.165,824.089,443.012,852.261,439.121C882.809,434.902,914.794,432.897,948.744,433.002C986.708,433.12,1015.103,435.703,1069.347,441.401C1183.12,453.352,1596,515.505,1596,515.505" stroke="#71717a" stroke-width="3" fill="none" stroke-linecap="round" stroke-miterlimit="4"></path><path d="M909.026,4C909.026,4,921.293,16.868,922.669,24.242C924.058,31.685,922.206,42.043,917.142,48.485C911.032,56.259,896.994,61.132,884.738,64.646C870.512,68.726,855.343,70.286,836.181,69.317C807.868,67.886,761.55,60.897,731.744,48.485C705.962,37.748,665.635,4,665.635,4" stroke="#71717a" stroke-width="3" fill="none" stroke-linecap="round" stroke-miterlimit="4"></path><path d="M1596,664.207C1596,664.207,1545.527,677.441,1519.598,681.602C1493.274,685.826,1471.517,688.84,1439.196,689.212C1390.226,689.776,1327.839,688.101,1254.271,675.996C1141.228,657.396,905.942,591.325,830.667,565.657C802.36,556.005,786.768,551.493,773.714,541.414C764.529,534.322,755.407,525.407,754.968,517.172C754.546,509.234,761.818,499.988,769.892,492.929C781.59,482.703,804.918,474.716,824.502,468.687C845.559,462.205,868.22,459.062,892.462,456.356C919.907,453.291,939.949,451.3,980.905,452.561C1074.759,455.449,1331.038,483.921,1443.25,501.01C1508.209,510.903,1596,531.632,1596,531.632" stroke="#71717a" stroke-width="3" fill="none" stroke-linecap="round" stroke-miterlimit="4"></path><path d="M854.226,4C854.226,4,861.899,11.669,862.434,16.162C863.013,21.033,860.93,28.3,856.409,32.323C849.753,38.246,833.578,40.758,820.101,41.219C803.44,41.789,780.662,38.038,763.819,31.447C747.976,25.247,721.38,4,721.38,4" stroke="#71717a" stroke-width="3" fill="none" stroke-linecap="round" stroke-miterlimit="4"></path><path d="M1596,641.731C1596,641.731,1556.813,657.274,1534.823,662.626C1510.295,668.596,1482.572,672.402,1455.276,674.515C1426.653,676.731,1396.269,676.619,1366.834,675.06C1337.307,673.497,1311.558,670.812,1278.392,665.119C1234.766,657.631,1182.327,644.834,1128.387,630.303C1063.912,612.934,965.691,583.096,918.082,565.657C892.876,556.424,874.725,551.377,861.378,541.414C851.84,534.294,841.595,524.548,841.274,517.172C841.021,511.345,846.358,505.716,852.46,501.01C862.301,493.421,879.571,487.768,900.503,483.559C936.71,476.279,990.571,474.681,1053.266,476.154C1154.121,478.523,1362.982,501.762,1447.236,513.86C1487.428,519.631,1509.261,523.611,1535.678,530.853C1557.966,536.962,1596,552.55,1596,552.55" stroke="#71717a" stroke-width="3" fill="none" stroke-linecap="round" stroke-miterlimit="4"></path><path d="M994.124,509.091C1014.906,503.2,1040.734,502.659,1077.387,502.215C1148.455,501.355,1306.838,509.61,1390.955,520.484C1448.462,527.918,1501.683,537.102,1534.865,549.495C1554.062,556.665,1568.586,564.011,1577.607,573.737C1584.269,580.921,1588.998,590.707,1589.039,597.98C1589.073,603.903,1585.553,609.184,1581.641,614.141C1576.89,620.163,1570.115,625.259,1560.987,630.303C1547.056,638.001,1524.589,646.005,1503.518,650.999C1479.256,656.75,1451.181,659.681,1423.116,660.676C1392.463,661.764,1358.667,659.71,1326.633,655.96C1294.344,652.18,1264.587,646.377,1230.151,637.983C1189.308,628.027,1140.313,613.139,1098.02,597.98C1057.586,583.486,1003.026,565.764,981.518,549.495C970.87,541.441,960.87,531.855,962.314,525.253C963.866,518.16,980.543,512.941,994.124,509.091" stroke="#71717a" stroke-width="3" fill="none" stroke-linecap="round" stroke-miterlimit="4"></path><path d="M1149.749,535.568C1165.45,531.34,1181.814,530.469,1206.03,529.709C1249.826,528.336,1338.288,530.638,1390.955,537.303C1430.979,542.368,1471.171,549.95,1495.477,559.66C1509.914,565.427,1521.259,571.639,1527.638,579.35C1532.274,584.954,1535.932,591.762,1534.669,597.98C1533.03,606.044,1521.241,616.064,1511.558,622.215C1500.663,629.135,1486.069,632.393,1471.357,635.656C1454.349,639.428,1435.042,641.394,1415.075,642.092C1392.497,642.882,1367.799,641.864,1342.714,638.91C1315.045,635.651,1283.594,629.378,1256.188,622.222C1230.568,615.533,1204.648,606.916,1183.095,597.98C1165.052,590.499,1145.9,583.503,1134.877,573.737C1126.782,566.565,1116.956,555.757,1118.762,549.495C1120.714,542.73,1137.583,538.844,1149.749,535.568" stroke="#71717a" stroke-width="3" fill="none" stroke-linecap="round" stroke-miterlimit="4"></path><path d="M1302.513,561.015C1320.564,557.847,1345.258,558.775,1366.834,560.796C1389.09,562.882,1418.416,566.779,1434.035,573.737C1443.806,578.09,1453.538,584.861,1455.388,589.899C1456.416,592.7,1455.532,595.474,1453.587,597.98C1450.196,602.348,1440.909,606.726,1431.156,609.374C1415.546,613.613,1388.663,614.922,1366.834,613.253C1343.711,611.486,1313.838,606.59,1296.16,597.98C1283.359,591.745,1265.919,579.901,1267.008,573.737C1268.094,567.59,1288.69,563.441,1302.513,561.015" stroke="#71717a" stroke-width="3" fill="none" stroke-linecap="round" stroke-miterlimit="4"></path></svg>